{"title":"Burn.Notice.S06E17E18.HDTV.Xvid-MrX","uid":7944586,"size":734861960,"categoryP":"video","categoryS":"tv_shows","magnet":"?xt=urn:btih:e7b23e8a1527c1c5ed15ddc775bf0077fec1384d&amp;dn=Burn.Notice.S06E17E18.HDTV.Xvid-MrX&amp;tr=udp%3A%2F%2Ftracker.openbittorrent.com%3A80&amp;tr=udp%3A%2F%2Fopen.demonii.com%3A1337&amp;tr=udp%3A%2F%2Ftracker.coppersurfer.tk%3A6969&amp;tr=udp%3A%2F%2Fexodus.desync.com%3A6969","seeders":2,"leechers":0,"uploader":"D.N.M","files":3,"time":1356096360,"description":"   _____       ____  ___\n  /     ______   /  /\n /   /  _  __      /\n/    Y      | /     \n____|__  /__| /___/  \n        /           _/\n\n\nBurn.Notice.S06E17E18.HDTV.Xvid-MrX &lt;a href=&quot;\nhttp://www.usanetwork.com/series/burnnotice/&quot; rel=&quot;nofollow&quot; target=&quot;_NEW&quot;&gt;\nhttp://www.usanetwork.com/series/burnnotice/&lt;/a&gt;\n\n\n\nGeneral\nComplete name                            : Burn.Notice.S06E17E18.HDTV.Xvid-MrX.avi\nFormat                                   : AVI\nFormat/Info                              : Audio Video Interleave\nFile size                                : 700 MiB\nDuration                                 : 1h 22mn\nOverall bit rate mode                    : Variable\nOverall bit rate                         : 1 191 Kbps\n\nVideo\nID                                       : 0\nFormat                                   : MPEG-4 Visual\nFormat profile                           : Advanced Simple@L5\nFormat settings, BVOP                    : 1\nFormat settings, QPel                    : No\nFormat settings, GMC                     : No warppoints\nFormat settings, Matrix                  : Default (H.263)\nMuxing mode                              : Packed bitstream\nCodec ID                                 : XVID\nCodec ID/Hint                            : XviD\nDuration                                 : 1h 22mn\nBit rate                                 : 1 018 Kbps\nWidth                                    : 640 pixels\nHeight                                   : 352 pixels\nDisplay aspect ratio                     : 16:9\nFrame rate                               : 23.976 fps\nColor space                              : YUV\nChroma subsampling                       : 4:2:0\nBit depth                                : 8 bits\nScan type                                : Progressive\nCompression mode                         : Lossy\nBits/(Pixel*Frame)                       : 0.188\nStream size                              : 598 MiB (85%)\nWriting library                          : XviD 1.2.1 (UTC 2008-12-04)\n\nAudio\nID                                       : 1\nFormat                                   : MPEG Audio\nFormat version                           : Version 1\nFormat profile                           : Layer 3\nCodec ID                                 : 55\nCodec ID/Hint                            : MP3\nDuration                                 : 1h 22mn\nBit rate mode                            : Variable\nBit rate                                 : 160 Kbps\nMinimum bit rate                         : 32.0 Kbps\nChannel(s)                               : 2 channels\nSampling rate                            : 48.0 KHz\nCompression mode                         : Lossy\nStream size                              : 94.1 MiB (13%)\nAlignment                                : Aligned on interleaves\nInterleave, duration                     : 24 ms (0.58 video frame)\nInterleave, preload duration             : 206 ms\nTitle                                    : Burn.Notice.S06E17E18\nWriting library                          : LAME3.99r\nEncoding settings                        : -m s -V 4 -q 0 -lowpass 17.5 --vbr-new -b 32\n","torrent":{"xt":"urn:btih:e7b23e8a1527c1c5ed15ddc775bf0077fec1384d","amp;dn":"Burn.Notice.S06E17E18.HDTV.Xvid-MrX","amp;tr":["udp%3A%2F%2Ftracker.openbittorrent.com%3A80","udp%3A%2F%2Fopen.demonii.com%3A1337","udp%3A%2F%2Ftracker.coppersurfer.tk%3A6969","udp%3A%2F%2Fexodus.desync.com%3A6969"],"infoHash":"e7b23e8a1527c1c5ed15ddc775bf0077fec1384d","infoHashBuffer":{"type":"Buffer","data":[231,178,62,138,21,39,193,197,237,21,221,199,117,191,0,119,254,193,56,77]},"announce":[],"urlList":[]}}